<?xml version="1.0" encoding="UTF-8" standalone="no"?>
<!DOCTYPE svg PUBLIC "-//W3C//DTD SVG 1.1//EN" "http://www.w3.org/Graphics/SVG/1.1/DTD/svg11.dtd">
<svg width="100%" height="100%" viewBox="0 0 60 84" version="1.1" xmlns="http://www.w3.org/2000/svg" xmlns:xlink="http://www.w3.org/1999/xlink" xml:space="preserve" xmlns:serif="http://www.serif.com/" style="fill-rule:evenodd;clip-rule:evenodd;stroke-linejoin:round;stroke-miterlimit:2;">
    <g transform="matrix(1,0,0,1,-0.635173,-0.311348)">
        <g transform="matrix(1,0,0,1,-930.748,-2030.16)">
            <g transform="matrix(0.616382,0.356369,-1.49635e-16,1.92415,848.68,1586.14)">
                <path d="M160.809,208.917C160.809,207.346 157.825,206.071 154.15,206.071L134.174,206.071L134.174,229.859C134.174,231.43 137.158,232.705 140.833,232.705L160.809,232.705L160.809,208.917Z" style="fill:rgb(51,105,231);"/>
            </g>
        </g>
        <g transform="matrix(1,0,0,1,-930.748,-2030.16)">
            <g transform="matrix(0.616382,0.356369,-1.49635e-16,1.92415,870.245,1607.08)">
                <path d="M160.809,208.917C160.809,207.346 157.825,206.071 154.15,206.071L134.174,206.071L134.174,229.859C134.174,231.43 137.158,232.705 140.833,232.705L160.809,232.705L160.809,208.917Z" style="fill:rgb(51,105,231);"/>
            </g>
        </g>
        <g transform="matrix(1,0,0,1,-930.748,-2030.16)">
            <g transform="matrix(0.616382,0.356369,-1.49635e-16,1.92415,891.81,1608.78)">
                <path d="M160.809,208.917C160.809,207.346 157.825,206.071 154.15,206.071L134.174,206.071L134.174,229.859C134.174,231.43 137.158,232.705 140.833,232.705L160.809,232.705L160.809,208.917Z" style="fill:rgb(51,105,231);"/>
            </g>
        </g>
    </g>
</svg>
