<?xml version="1.0" encoding="UTF-8" standalone="no"?>
<!DOCTYPE svg PUBLIC "-//W3C//DTD SVG 1.1//EN" "http://www.w3.org/Graphics/SVG/1.1/DTD/svg11.dtd">
<svg width="100%" height="100%" viewBox="0 0 632 461" version="1.1" xmlns="http://www.w3.org/2000/svg" xmlns:xlink="http://www.w3.org/1999/xlink" xml:space="preserve" xmlns:serif="http://www.serif.com/" style="fill-rule:evenodd;clip-rule:evenodd;stroke-linejoin:round;stroke-miterlimit:2;">
    <g transform="matrix(1,0,0,1,-1132.86,-814.484)">
        <g transform="matrix(1,0,0,1,1029.12,100.696)">
            <g transform="matrix(1.17153,0,0.393073,1,-1780.34,-107.935)">
                <path d="M1564.63,821.729C1573.45,822.124 1579.7,828.739 1580.12,838.4C1580.13,838.837 1580.13,838.95 1580.14,839.365L1580.14,1142.67C1580,1154.81 1569.74,1170.16 1557.43,1175.05C1554.59,1176.18 1551.78,1176.73 1549.09,1176.77L1338.37,1176.77C1329.01,1176.64 1322.53,1169.36 1322.42,1159.13L1322.42,855.821C1322.56,843.549 1332.84,828.32 1345.11,823.448C1347.96,822.317 1350.78,821.761 1353.46,821.723L1564.19,821.723C1564.34,821.725 1564.48,821.727 1564.63,821.729ZM1363.69,866.723L1363.69,1131.77L1538.87,1131.77L1538.87,866.723L1363.69,866.723Z" style="fill:rgb(0,160,255);"/>
            </g>
            <g transform="matrix(1.17153,0,0.393073,1,-1566.92,-51.7783)">
                <path d="M1564.63,821.729C1573.46,822.125 1579.7,828.725 1580.12,838.403C1580.12,838.583 1580.13,838.764 1580.13,838.945L1580.2,845.293L1514.02,980.448L1580.18,1138.97L1580.13,1143.11C1580.13,1143.11 1579.89,1147.94 1578.49,1152.1C1574.21,1164.79 1560.92,1176.4 1549.55,1176.76C1549.39,1176.77 1549.24,1176.77 1549.09,1176.77L1390.43,1176.77C1381.2,1176.64 1374.72,1169.51 1374.49,1159.55C1374.49,1159.41 1374.49,1159.26 1374.49,1159.12L1374.49,855.821C1374.62,843.47 1384.98,828.294 1397.18,823.448C1400.03,822.317 1402.85,821.761 1405.53,821.723L1564.19,821.723C1564.34,821.725 1564.48,821.727 1564.63,821.729ZM1415.76,866.723L1415.76,1131.77L1525.96,1131.77L1468.41,993.882L1530.68,866.723L1415.76,866.723Z" style="fill:rgb(0,160,255);"/>
            </g>
            <g transform="matrix(1.17153,0,0.393073,1,-1802.06,0.879932)">
                <path d="M1408.59,822.006C1410.91,822.825 1413.25,823.666 1414.91,825.375C1416.59,827.097 1417.75,829.355 1418.33,832.003C1418.61,833.32 1418.6,834.8 1418.73,836.198C1417.75,938.336 1416.89,1040.77 1415.76,1142.67L1415.75,1143.02L1415.22,1147.51C1414.76,1149.06 1414.44,1150.6 1413.84,1152.14C1409.1,1164.4 1395.32,1174.89 1384.95,1173.07C1379.99,1172.2 1376.33,1168.69 1375.03,1163.58C1374.71,1162.3 1374.67,1160.86 1374.49,1159.51C1374.49,1159.51 1374.56,1152.16 1374.62,1146.18C1375.58,1048.44 1376.52,950.237 1377.46,852.247L1377.96,847.702C1379.17,843.557 1379.22,842.433 1381.52,838.359C1384.97,832.271 1390.39,827.009 1396.14,824.156C1400,822.248 1400.95,822.393 1404.67,821.751C1405.98,821.836 1407.29,821.921 1408.59,822.006Z" style="fill:rgb(0,160,255);"/>
            </g>
        </g>
    </g>
</svg>
