<?xml version="1.0" encoding="UTF-8" standalone="no"?>
<!DOCTYPE svg PUBLIC "-//W3C//DTD SVG 1.1//EN" "http://www.w3.org/Graphics/SVG/1.1/DTD/svg11.dtd">
<svg width="100%" height="100%" viewBox="0 0 311 91" version="1.1" xmlns="http://www.w3.org/2000/svg" xmlns:xlink="http://www.w3.org/1999/xlink" xml:space="preserve" xmlns:serif="http://www.serif.com/" style="fill-rule:evenodd;clip-rule:evenodd;stroke-linejoin:round;stroke-miterlimit:2;">
    <g id="Artboard1" transform="matrix(0.992085,0,0,1.0774,0,0)">
        <rect x="0" y="0" width="312.778" height="84" style="fill:none;"/>
        <g transform="matrix(1.00798,0,0,0.92816,-935.503,-1881.95)">
            <g transform="matrix(0.617759,0.357165,-1.49969e-16,1.92845,847.861,1584.97)">
                <path d="M160.809,208.917C160.809,207.346 157.825,206.071 154.15,206.071L134.174,206.071L134.174,229.859C134.174,231.43 137.158,232.705 140.833,232.705L160.809,232.705L160.809,208.917Z" style="fill:rgb(51,105,231);"/>
            </g>
            <g transform="matrix(0.617759,0.357165,-1.49969e-16,1.92845,869.474,1605.95)">
                <path d="M160.809,208.917C160.809,207.346 157.825,206.071 154.15,206.071L134.174,206.071L134.174,229.859C134.174,231.43 137.158,232.705 140.833,232.705L160.809,232.705L160.809,208.917Z" style="fill:rgb(51,105,231);"/>
            </g>
            <g transform="matrix(0.617759,0.357165,-1.49969e-16,1.92845,891.087,1607.65)">
                <path d="M160.809,208.917C160.809,207.346 157.825,206.071 154.15,206.071L134.174,206.071L134.174,229.859C134.174,231.43 137.158,232.705 140.833,232.705L160.809,232.705L160.809,208.917Z" style="fill:rgb(51,105,231);"/>
            </g>
            <g transform="matrix(5.10837,0,0,5.10837,646.366,1847.21)">
                <text x="69.459px" y="47.911px" style="font-family:'ProximaNova-Bold', 'Proxima Nova';font-weight:700;font-size:12px;fill:rgb(51,105,231);">w<tspan x="78.267px 84.483px 90.699px 96.447px 103.059px 109.155px " y="47.911px 47.911px 47.911px 47.911px 47.911px 47.911px ">eekday</tspan></text>
            </g>
        </g>
    </g>
</svg>
