<?xml version="1.0" encoding="UTF-8" standalone="no"?>
<!DOCTYPE svg PUBLIC "-//W3C//DTD SVG 1.1//EN" "http://www.w3.org/Graphics/SVG/1.1/DTD/svg11.dtd">
<svg width="100%" height="100%" viewBox="0 0 311 91" version="1.1" xmlns="http://www.w3.org/2000/svg" xmlns:xlink="http://www.w3.org/1999/xlink" xml:space="preserve" xmlns:serif="http://www.serif.com/" style="fill-rule:evenodd;clip-rule:evenodd;stroke-linejoin:round;stroke-miterlimit:2;">
    <g id="Artboard1" transform="matrix(0.992085,0,0,1.0774,0,0)">
        <g transform="matrix(0.622689,0.331506,-1.51166e-16,1.78991,-80.8761,-410.844)">
            <path d="M160.809,208.917C160.809,207.346 157.825,206.071 154.15,206.071L134.174,206.071L134.174,229.859C134.174,231.43 137.158,232.705 140.833,232.705L160.809,232.705L160.809,208.917Z" style="fill:white;"/>
        </g>
        <g transform="matrix(0.622689,0.331506,-1.51166e-16,1.78991,-59.0906,-391.371)">
            <path d="M160.809,208.917C160.809,207.346 157.825,206.071 154.15,206.071L134.174,206.071L134.174,229.859C134.174,231.43 137.158,232.705 140.833,232.705L160.809,232.705L160.809,208.917Z" style="fill:white;"/>
        </g>
        <g transform="matrix(0.622689,0.331506,-1.51166e-16,1.78991,-37.3051,-389.794)">
            <path d="M160.809,208.917C160.809,207.346 157.825,206.071 154.15,206.071L134.174,206.071L134.174,229.859C134.174,231.43 137.158,232.705 140.833,232.705L160.809,232.705L160.809,208.917Z" style="fill:white;"/>
        </g>
        <g transform="matrix(60.9421,0,0,56.1163,74.0349,59.8848)">
            <path d="M0.02,-0.541L0.124,-0.54L0.237,-0.17L0.351,-0.54L0.441,-0.54L0.555,-0.17L0.668,-0.54L0.771,-0.54L0.606,0L0.522,0L0.396,-0.391L0.269,0L0.185,0L0.02,-0.541Z" style="fill:white;fill-rule:nonzero;"/>
        </g>
        <g transform="matrix(60.9421,0,0,56.1163,118.248,59.8848)">
            <path d="M0.152,-0.241C0.156,-0.19 0.171,-0.151 0.198,-0.124C0.224,-0.097 0.259,-0.084 0.305,-0.084C0.337,-0.084 0.365,-0.091 0.389,-0.106C0.413,-0.12 0.432,-0.141 0.445,-0.17L0.548,-0.137C0.527,-0.089 0.495,-0.052 0.453,-0.025C0.41,0.002 0.362,0.015 0.31,0.015C0.256,0.015 0.209,0.003 0.169,-0.02C0.128,-0.044 0.096,-0.077 0.074,-0.119C0.051,-0.162 0.04,-0.211 0.04,-0.266C0.04,-0.324 0.051,-0.375 0.073,-0.419C0.095,-0.462 0.126,-0.496 0.166,-0.52C0.206,-0.543 0.252,-0.555 0.305,-0.555C0.356,-0.555 0.401,-0.544 0.439,-0.521C0.476,-0.498 0.505,-0.465 0.525,-0.422C0.545,-0.379 0.556,-0.328 0.556,-0.27C0.556,-0.264 0.555,-0.254 0.555,-0.241L0.152,-0.241ZM0.309,-0.463C0.264,-0.463 0.229,-0.451 0.203,-0.427C0.177,-0.403 0.161,-0.368 0.155,-0.322L0.448,-0.322C0.442,-0.37 0.428,-0.405 0.405,-0.428C0.382,-0.451 0.35,-0.463 0.309,-0.463Z" style="fill:white;fill-rule:nonzero;"/>
        </g>
        <g transform="matrix(60.9421,0,0,56.1163,151.858,59.8848)">
            <path d="M0.152,-0.241C0.156,-0.19 0.171,-0.151 0.198,-0.124C0.224,-0.097 0.259,-0.084 0.305,-0.084C0.337,-0.084 0.365,-0.091 0.389,-0.106C0.413,-0.12 0.432,-0.141 0.445,-0.17L0.548,-0.137C0.527,-0.089 0.495,-0.052 0.453,-0.025C0.41,0.002 0.362,0.015 0.31,0.015C0.256,0.015 0.209,0.003 0.169,-0.02C0.128,-0.044 0.096,-0.077 0.074,-0.119C0.051,-0.162 0.04,-0.211 0.04,-0.266C0.04,-0.324 0.051,-0.375 0.073,-0.419C0.095,-0.462 0.126,-0.496 0.166,-0.52C0.206,-0.543 0.252,-0.555 0.305,-0.555C0.356,-0.555 0.401,-0.544 0.439,-0.521C0.476,-0.498 0.505,-0.465 0.525,-0.422C0.545,-0.379 0.556,-0.328 0.556,-0.27C0.556,-0.264 0.555,-0.254 0.555,-0.241L0.152,-0.241ZM0.309,-0.463C0.264,-0.463 0.229,-0.451 0.203,-0.427C0.177,-0.403 0.161,-0.368 0.155,-0.322L0.448,-0.322C0.442,-0.37 0.428,-0.405 0.405,-0.428C0.382,-0.451 0.35,-0.463 0.309,-0.463Z" style="fill:white;fill-rule:nonzero;"/>
        </g>
        <g transform="matrix(60.9421,0,0,56.1163,185.467,59.8848)">
            <path d="M0.07,-0.72L0.176,-0.72L0.176,-0.28L0.388,-0.54L0.521,-0.54L0.297,-0.27L0.544,0L0.402,0L0.176,-0.26L0.176,0L0.07,0L0.07,-0.72Z" style="fill:white;fill-rule:nonzero;"/>
        </g>
        <g transform="matrix(60.9421,0,0,56.1163,214.049,59.8848)">
            <path d="M0.539,-0.72L0.539,0L0.446,0L0.446,-0.05C0.426,-0.029 0.402,-0.013 0.375,-0.002C0.348,0.009 0.318,0.015 0.285,0.015C0.236,0.015 0.193,0.003 0.156,-0.022C0.119,-0.047 0.09,-0.081 0.07,-0.125C0.05,-0.168 0.04,-0.217 0.04,-0.271C0.04,-0.325 0.05,-0.374 0.07,-0.417C0.09,-0.46 0.119,-0.494 0.156,-0.518C0.193,-0.543 0.237,-0.555 0.287,-0.555C0.345,-0.555 0.394,-0.538 0.434,-0.503L0.434,-0.72L0.539,-0.72ZM0.299,-0.08C0.348,-0.08 0.385,-0.097 0.409,-0.131C0.433,-0.165 0.446,-0.212 0.446,-0.271C0.446,-0.329 0.434,-0.375 0.41,-0.409C0.386,-0.443 0.35,-0.46 0.303,-0.461C0.269,-0.46 0.241,-0.452 0.218,-0.436C0.195,-0.419 0.179,-0.397 0.168,-0.368C0.157,-0.339 0.151,-0.307 0.151,-0.271C0.151,-0.234 0.157,-0.201 0.168,-0.173C0.179,-0.144 0.195,-0.121 0.217,-0.105C0.239,-0.088 0.267,-0.08 0.299,-0.08Z" style="fill:white;fill-rule:nonzero;"/>
        </g>
        <g transform="matrix(60.9421,0,0,56.1163,248.39,59.8848)">
            <path d="M0.491,-0.452C0.498,-0.436 0.503,-0.418 0.506,-0.4C0.508,-0.381 0.51,-0.359 0.51,-0.333L0.51,0L0.417,0L0.417,-0.079C0.395,-0.047 0.368,-0.023 0.336,-0.008C0.304,0.007 0.266,0.015 0.223,0.015C0.184,0.015 0.151,0.008 0.124,-0.007C0.096,-0.021 0.075,-0.041 0.061,-0.065C0.047,-0.09 0.04,-0.117 0.04,-0.147C0.04,-0.227 0.083,-0.28 0.168,-0.307C0.193,-0.315 0.222,-0.321 0.255,-0.327C0.287,-0.332 0.332,-0.339 0.39,-0.347L0.407,-0.349C0.405,-0.387 0.395,-0.415 0.376,-0.432C0.357,-0.45 0.326,-0.459 0.285,-0.459C0.254,-0.459 0.228,-0.452 0.205,-0.438C0.182,-0.424 0.166,-0.402 0.157,-0.374L0.06,-0.404C0.073,-0.451 0.099,-0.488 0.137,-0.515C0.175,-0.542 0.225,-0.555 0.286,-0.555C0.335,-0.555 0.378,-0.547 0.413,-0.53C0.448,-0.513 0.474,-0.487 0.491,-0.452ZM0.241,-0.071C0.269,-0.071 0.294,-0.076 0.316,-0.086C0.338,-0.096 0.355,-0.109 0.368,-0.126C0.381,-0.142 0.39,-0.159 0.395,-0.178C0.401,-0.197 0.405,-0.225 0.406,-0.262L0.393,-0.26C0.344,-0.253 0.307,-0.247 0.283,-0.243C0.259,-0.239 0.237,-0.234 0.218,-0.228C0.195,-0.22 0.176,-0.21 0.163,-0.197C0.15,-0.184 0.144,-0.168 0.144,-0.148C0.144,-0.126 0.152,-0.107 0.168,-0.093C0.185,-0.078 0.209,-0.071 0.241,-0.071Z" style="fill:white;fill-rule:nonzero;"/>
        </g>
        <g transform="matrix(60.9421,0,0,56.1163,278.526,59.8848)">
            <path d="M0.435,-0.54L0.541,-0.54L0.243,0.24L0.143,0.24L0.232,-0.003L0.014,-0.54L0.123,-0.54L0.282,-0.134L0.435,-0.54Z" style="fill:white;fill-rule:nonzero;"/>
        </g>
    </g>
</svg>
