<?xml version="1.0" encoding="UTF-8" standalone="no"?>
<!DOCTYPE svg PUBLIC "-//W3C//DTD SVG 1.1//EN" "http://www.w3.org/Graphics/SVG/1.1/DTD/svg11.dtd">
<svg width="100%" height="100%" viewBox="0 0 285 84" version="1.1" xmlns="http://www.w3.org/2000/svg" xmlns:xlink="http://www.w3.org/1999/xlink" xml:space="preserve" xmlns:serif="http://www.serif.com/" style="fill-rule:evenodd;clip-rule:evenodd;stroke-linejoin:round;stroke-miterlimit:2;">
    <g transform="matrix(1,0,0,1,-930.748,-2030.16)">
        <g transform="matrix(87.6437,0,0,83.9337,1020.57,2094.87)">
            <path d="M0.291,0.224C0.428,0.224 0.537,0.155 0.537,-0.017L0.537,-0.494L0.418,-0.494L0.418,-0.243C0.418,-0.151 0.366,-0.104 0.293,-0.104C0.218,-0.104 0.168,-0.149 0.168,-0.243L0.168,-0.494L0.049,-0.494L0.049,-0.243C0.049,-0.067 0.157,0.007 0.271,0.007C0.336,0.007 0.388,-0.022 0.418,-0.076L0.418,-0.014C0.418,0.082 0.372,0.121 0.291,0.121C0.231,0.121 0.192,0.1 0.172,0.054L0.053,0.054C0.081,0.171 0.176,0.224 0.291,0.224Z" style="fill:rgb(51,105,231);fill-rule:nonzero;"/>
        </g>
        <g transform="matrix(87.6437,0,0,83.9337,1070.26,2094.87)">
            <path d="M0.275,0.013C0.353,0.013 0.42,-0.024 0.45,-0.097L0.45,0L0.559,0L0.559,-0.243C0.559,-0.402 0.451,-0.507 0.296,-0.507C0.139,-0.507 0.029,-0.399 0.029,-0.242C0.029,-0.073 0.155,0.013 0.275,0.013ZM0.295,-0.098C0.208,-0.098 0.149,-0.16 0.149,-0.247C0.149,-0.334 0.208,-0.396 0.295,-0.396C0.382,-0.396 0.44,-0.334 0.44,-0.247C0.44,-0.16 0.382,-0.098 0.295,-0.098Z" style="fill:rgb(51,105,231);fill-rule:nonzero;"/>
        </g>
        <g transform="matrix(87.6437,0,0,83.9337,1120.48,2094.87)">
            <path d="M0.295,0.013C0.429,0.013 0.527,-0.068 0.551,-0.185L0.431,-0.185C0.41,-0.132 0.36,-0.098 0.295,-0.098C0.208,-0.098 0.149,-0.16 0.149,-0.247C0.149,-0.334 0.208,-0.396 0.295,-0.396C0.36,-0.396 0.41,-0.362 0.431,-0.309L0.551,-0.309C0.527,-0.426 0.429,-0.507 0.295,-0.507C0.139,-0.507 0.029,-0.397 0.029,-0.247C0.029,-0.097 0.139,0.013 0.295,0.013Z" style="fill:rgb(51,105,231);fill-rule:nonzero;"/>
        </g>
        <g transform="matrix(87.6437,0,0,83.9337,1168.25,2094.87)">
            <path d="M0.066,0L0.185,0L0.185,-0.223L0.387,0L0.542,0L0.301,-0.252L0.533,-0.494L0.381,-0.494L0.185,-0.278L0.185,-0.71L0.066,-0.71L0.066,0Z" style="fill:rgb(51,105,231);fill-rule:nonzero;"/>
        </g>
        <g transform="matrix(0.616382,0.356369,-1.49635e-16,1.92415,848.68,1586.14)">
            <path d="M160.809,208.917C160.809,207.346 157.825,206.071 154.15,206.071L134.174,206.071L134.174,229.859C134.174,231.43 137.158,232.705 140.833,232.705L160.809,232.705L160.809,208.917Z" style="fill:rgb(51,105,231);"/>
        </g>
        <g transform="matrix(0.616382,0.356369,-1.49635e-16,1.92415,870.245,1607.08)">
            <path d="M160.809,208.917C160.809,207.346 157.825,206.071 154.15,206.071L134.174,206.071L134.174,229.859C134.174,231.43 137.158,232.705 140.833,232.705L160.809,232.705L160.809,208.917Z" style="fill:rgb(51,105,231);"/>
        </g>
        <g transform="matrix(0.616382,0.356369,-1.49635e-16,1.92415,891.81,1608.78)">
            <path d="M160.809,208.917C160.809,207.346 157.825,206.071 154.15,206.071L134.174,206.071L134.174,229.859C134.174,231.43 137.158,232.705 140.833,232.705L160.809,232.705L160.809,208.917Z" style="fill:rgb(51,105,231);"/>
        </g>
    </g>
</svg>
