<?xml version="1.0" encoding="UTF-8" standalone="no"?>
<!DOCTYPE svg PUBLIC "-//W3C//DTD SVG 1.1//EN" "http://www.w3.org/Graphics/SVG/1.1/DTD/svg11.dtd">
<svg width="100%" height="100%" viewBox="0 0 67 48" version="1.1" xmlns="http://www.w3.org/2000/svg" xmlns:xlink="http://www.w3.org/1999/xlink" xml:space="preserve" xmlns:serif="http://www.serif.com/" style="fill-rule:evenodd;clip-rule:evenodd;stroke-linejoin:round;stroke-miterlimit:2;">
    <g transform="matrix(1,0,0,1,-228.999,-509.055)">
        <g transform="matrix(1,0,0,1,-112.844,-5.44401)">
            <path d="M373.968,514.499L386.641,549.318L359.198,549.318L363.957,562.394L359.256,562.341L341.843,514.499L373.968,514.499ZM390.159,526.765L382.2,526.765L380.607,522.365L394.796,522.365L393.899,539.49L408.157,557.232L373.16,557.232L371.559,552.832L398.976,552.832L389.417,540.937L390.159,526.765ZM370.887,518.899L348.127,518.899L357.597,544.918L380.357,544.918L370.887,518.899Z" style="fill:rgb(0,122,245);"/>
        </g>
    </g>
</svg>
