<?xml version="1.0" encoding="UTF-8" standalone="no"?>
<!DOCTYPE svg PUBLIC "-//W3C//DTD SVG 1.1//EN" "http://www.w3.org/Graphics/SVG/1.1/DTD/svg11.dtd">
<svg width="100%" height="100%" viewBox="0 0 311 91" version="1.1" xmlns="http://www.w3.org/2000/svg" xmlns:xlink="http://www.w3.org/1999/xlink" xml:space="preserve" xmlns:serif="http://www.serif.com/" style="fill-rule:evenodd;clip-rule:evenodd;stroke-linejoin:round;stroke-miterlimit:2;">
    <g transform="matrix(1.5,0,0,1.5,-566.445,-597.494)">
        <g id="Artboard1">
            <g>
                <g transform="matrix(38.5663,0,0,38.5663,557.82,440.369)">
                    <path d="M0.279,-0.148L0.141,-0.483L0.024,-0.483L0.226,-0.034L0.104,0.207L0.211,0.207L0.54,-0.483L0.435,-0.483L0.285,-0.148L0.279,-0.148Z" style="fill:rgb(51,105,231);fill-rule:nonzero;"/>
                </g>
                <g transform="matrix(1.29829,0,0,1.29829,437.349,413.957)">
                    <path d="M21,16.74C22.335,16.772 23.629,16.267 24.59,15.34L26.37,17.27C24.974,18.71 23.024,19.483 21.02,19.39C16.67,19.39 13.86,16.49 13.86,12.57C13.859,12.52 13.858,12.469 13.858,12.419C13.858,8.76 16.869,5.749 20.528,5.749C20.562,5.749 20.596,5.749 20.63,5.75C24.95,5.75 27.4,9.05 27.18,13.63L17,13.63C17.292,15.554 19.063,16.931 21,16.74ZM24.11,11.45C24.009,9.663 22.457,8.274 20.67,8.37C18.841,8.272 17.227,9.622 17,11.44L24.11,11.45Z" style="fill:rgb(51,105,231);fill-rule:nonzero;"/>
                </g>
                <g transform="matrix(1.29829,0,0,1.29829,458.314,413.957)">
                    <path d="M21,16.74C22.335,16.772 23.629,16.267 24.59,15.34L26.37,17.27C24.974,18.71 23.024,19.483 21.02,19.39C16.67,19.39 13.86,16.49 13.86,12.57C13.859,12.52 13.858,12.469 13.858,12.419C13.858,8.76 16.869,5.749 20.528,5.749C20.562,5.749 20.596,5.749 20.63,5.75C24.95,5.75 27.4,9.05 27.18,13.63L17,13.63C17.292,15.554 19.063,16.931 21,16.74ZM24.11,11.45C24.009,9.663 22.457,8.274 20.67,8.37C18.841,8.272 17.227,9.622 17,11.44L24.11,11.45Z" style="fill:rgb(51,105,231);fill-rule:nonzero;"/>
                </g>
                <g transform="matrix(1.29829,0,0,1.29829,458.11,413.957)">
                    <path d="M44.18,12.57C44.176,12.477 44.174,12.383 44.174,12.29C44.174,8.708 47.122,5.76 50.704,5.76C50.713,5.76 50.721,5.76 50.73,5.76C52.404,5.748 54,6.481 55.08,7.76L55.08,0L57.86,0L57.86,19.12L55.08,19.12L55.08,17.32C54.015,18.638 52.405,19.401 50.71,19.39C47.116,19.359 44.176,16.394 44.176,12.8C44.176,12.723 44.177,12.647 44.18,12.57ZM55.23,12.57C55.23,10.299 53.361,8.43 51.09,8.43C48.819,8.43 46.95,10.299 46.95,12.57C46.95,14.841 48.819,16.71 51.09,16.71C53.361,16.71 55.23,14.841 55.23,12.57Z" style="fill:rgb(51,105,231);fill-rule:nonzero;"/>
                </g>
                <g transform="matrix(1.29829,0,0,1.29829,479.661,413.957)">
                    <path d="M44.18,12.57C44.176,12.477 44.174,12.383 44.174,12.29C44.174,8.708 47.122,5.76 50.704,5.76C50.713,5.76 50.721,5.76 50.73,5.76C52.404,5.748 54,6.481 55.08,7.76L55.08,6L57.86,6L57.86,19.12L55.08,19.12L55.08,17.32C54.015,18.638 52.405,19.401 50.71,19.39C47.116,19.359 44.176,16.394 44.176,12.8C44.176,12.723 44.177,12.647 44.18,12.57ZM55.23,12.57C55.23,10.299 53.361,8.43 51.09,8.43C48.819,8.43 46.95,10.299 46.95,12.57C46.95,14.841 48.819,16.71 51.09,16.71C53.361,16.71 55.23,14.841 55.23,12.57Z" style="fill:rgb(51,105,231);fill-rule:nonzero;"/>
                </g>
                <g transform="matrix(1.29829,0,0,1.29829,382.065,413.957)">
                    <path d="M93.81,13.31L91.61,15.72L91.61,19.13L88.83,19.13L88.83,0L91.61,0L91.61,12.52L97.5,6L100.88,6L95.77,11.61L101,19.12L97.87,19.12L93.81,13.31Z" style="fill:rgb(51,105,231);fill-rule:nonzero;"/>
                </g>
                <g transform="matrix(37.325,0,0,37.325,424.554,439.537)">
                    <path d="M0.346,-0.483L0.246,-0.137L0.142,-0.483L0.03,-0.483L0.19,-0L0.294,-0L0.395,-0.331L0.49,-0L0.594,-0L0.754,-0.483L0.643,-0.483L0.544,-0.137L0.444,-0.483L0.346,-0.483Z" style="fill:rgb(51,105,231);fill-rule:nonzero;"/>
                </g>
                <g transform="matrix(0.254799,0.147315,-4.31806e-17,0.924959,349.76,198.601)">
                    <path d="M160.809,208.518C160.809,207.167 157.825,206.071 154.15,206.071L140.034,206.071C136.8,206.071 134.174,207.036 134.174,208.224L134.174,230.257C134.174,231.608 137.158,232.705 140.833,232.705L154.15,232.705C157.825,232.705 160.809,231.608 160.809,230.257L160.809,208.518Z" style="fill:rgb(51,105,231);"/>
                </g>
                <g transform="matrix(0.254799,0.147315,-4.31806e-17,0.924959,359.771,208.379)">
                    <path d="M160.809,208.518C160.809,207.167 157.825,206.071 154.15,206.071L140.034,206.071C136.8,206.071 134.174,207.036 134.174,208.224L134.174,230.257C134.174,231.608 137.158,232.705 140.833,232.705L154.15,232.705C157.825,232.705 160.809,231.608 160.809,230.257L160.809,208.518Z" style="fill:rgb(51,105,231);"/>
                </g>
                <g transform="matrix(0.254799,0.147315,-4.31806e-17,0.924959,369.782,208.38)">
                    <path d="M160.809,208.518C160.809,207.167 157.825,206.071 154.15,206.071L140.034,206.071C136.8,206.071 134.174,207.036 134.174,208.224L134.174,230.257C134.174,231.608 137.158,232.705 140.833,232.705L154.15,232.705C157.825,232.705 160.809,231.608 160.809,230.257L160.809,208.518Z" style="fill:rgb(51,105,231);"/>
                </g>
            </g>
        </g>
    </g>
</svg>
