<?xml version="1.0" encoding="UTF-8" standalone="no"?>
<!DOCTYPE svg PUBLIC "-//W3C//DTD SVG 1.1//EN" "http://www.w3.org/Graphics/SVG/1.1/DTD/svg11.dtd">
<svg width="100%" height="100%" viewBox="0 0 312 60" version="1.1" xmlns="http://www.w3.org/2000/svg" xmlns:xlink="http://www.w3.org/1999/xlink" xml:space="preserve" xmlns:serif="http://www.serif.com/" style="fill-rule:evenodd;clip-rule:evenodd;stroke-linejoin:round;stroke-miterlimit:2;">
    <g transform="matrix(1,0,0,1,-582.988,-562.745)">
        <g transform="matrix(1.5,0,0,1.5,0,0)">
            <g transform="matrix(0.254799,0.147315,-4.31806e-17,0.924959,354.471,164.107)">
                <path d="M160.809,208.518C160.809,207.167 157.825,206.071 154.15,206.071L140.034,206.071C136.8,206.071 134.174,207.036 134.174,208.224L134.174,230.257C134.174,231.608 137.158,232.705 140.833,232.705L154.15,232.705C157.825,232.705 160.809,231.608 160.809,230.257L160.809,208.518Z" style="fill:rgb(51,105,231);"/>
            </g>
            <g transform="matrix(0.254799,0.147315,-4.31806e-17,0.924959,364.482,172.979)">
                <path d="M160.809,208.518C160.809,207.167 157.825,206.071 154.15,206.071L140.034,206.071C136.8,206.071 134.174,207.036 134.174,208.224L134.174,230.257C134.174,231.608 137.158,232.705 140.833,232.705L154.15,232.705C157.825,232.705 160.809,231.608 160.809,230.257L160.809,208.518Z" style="fill:rgb(51,105,231);"/>
            </g>
            <g transform="matrix(0.254799,0.147315,-4.31806e-17,0.924959,374.493,172.98)">
                <path d="M160.809,208.518C160.809,207.167 157.825,206.071 154.15,206.071L140.034,206.071C136.8,206.071 134.174,207.036 134.174,208.224L134.174,230.257C134.174,231.608 137.158,232.705 140.833,232.705L154.15,232.705C157.825,232.705 160.809,231.608 160.809,230.257L160.809,208.518Z" style="fill:rgb(51,105,231);"/>
            </g>
            <g transform="matrix(1.12591,0,0,1.12591,-56.3765,-50.3598)">
                <g transform="matrix(1.29829,0,0,1.29829,442.645,381.047)">
                    <path d="M21,16.74C22.335,16.772 23.629,16.267 24.59,15.34L26.37,17.27C24.974,18.71 23.024,19.483 21.02,19.39C16.67,19.39 13.86,16.49 13.86,12.57C13.859,12.52 13.858,12.469 13.858,12.419C13.858,8.76 16.869,5.749 20.528,5.749C20.562,5.749 20.596,5.749 20.63,5.75C24.95,5.75 27.4,9.05 27.18,13.63L17,13.63C17.292,15.554 19.063,16.931 21,16.74ZM24.11,11.45C24.009,9.663 22.457,8.274 20.67,8.37C18.841,8.272 17.227,9.622 17,11.44L24.11,11.45Z" style="fill:rgb(51,105,231);fill-rule:nonzero;"/>
                </g>
                <g transform="matrix(1.29829,0,0,1.29829,463.61,381.047)">
                    <path d="M21,16.74C22.335,16.772 23.629,16.267 24.59,15.34L26.37,17.27C24.974,18.71 23.024,19.483 21.02,19.39C16.67,19.39 13.86,16.49 13.86,12.57C13.859,12.52 13.858,12.469 13.858,12.419C13.858,8.76 16.869,5.749 20.528,5.749C20.562,5.749 20.596,5.749 20.63,5.75C24.95,5.75 27.4,9.05 27.18,13.63L17,13.63C17.292,15.554 19.063,16.931 21,16.74ZM24.11,11.45C24.009,9.663 22.457,8.274 20.67,8.37C18.841,8.272 17.227,9.622 17,11.44L24.11,11.45Z" style="fill:rgb(51,105,231);fill-rule:nonzero;"/>
                </g>
                <g transform="matrix(1.29829,0,0,1.29829,462.403,381.047)">
                    <path d="M44.18,12.57C44.176,12.477 44.174,12.383 44.174,12.29C44.174,8.708 47.122,5.76 50.704,5.76C50.713,5.76 50.721,5.76 50.73,5.76C52.404,5.748 54,6.481 55.08,7.76L55.08,0L57.86,0L57.86,19.12L55.08,19.12L55.08,17.32C54.015,18.638 52.405,19.401 50.71,19.39C47.116,19.359 44.176,16.394 44.176,12.8C44.176,12.723 44.177,12.647 44.18,12.57ZM55.23,12.57C55.23,10.299 53.361,8.43 51.09,8.43C48.819,8.43 46.95,10.299 46.95,12.57C46.95,14.841 48.819,16.71 51.09,16.71C53.361,16.71 55.23,14.841 55.23,12.57Z" style="fill:rgb(51,105,231);fill-rule:nonzero;"/>
                </g>
                <g transform="matrix(1.29829,0,0,1.29829,484.029,381.047)">
                    <path d="M44.18,12.57C44.176,12.477 44.174,12.383 44.174,12.29C44.174,8.708 47.122,5.76 50.704,5.76C50.713,5.76 50.721,5.76 50.73,5.76C52.404,5.748 54,6.481 55.08,7.76L55.08,6L57.86,6L57.86,19.12L55.08,19.12L55.08,17.32C54.015,18.638 52.405,19.401 50.71,19.39C47.116,19.359 44.176,16.394 44.176,12.8C44.176,12.723 44.177,12.647 44.18,12.57ZM55.23,12.57C55.23,10.299 53.361,8.43 51.09,8.43C48.819,8.43 46.95,10.299 46.95,12.57C46.95,14.841 48.819,16.71 51.09,16.71C53.361,16.71 55.23,14.841 55.23,12.57Z" style="fill:rgb(51,105,231);fill-rule:nonzero;"/>
                </g>
                <g transform="matrix(1.29829,0,0,1.29829,387.361,381.047)">
                    <path d="M93.81,13.31L91.61,15.72L91.61,19.13L88.83,19.13L88.83,0L91.61,0L91.61,12.52L97.5,6L100.88,6L95.77,11.61L101,19.12L97.87,19.12L93.81,13.31Z" style="fill:rgb(51,105,231);fill-rule:nonzero;"/>
                </g>
                <g transform="matrix(1,0,0,1,-7.16971,57.6618)">
                    <g transform="matrix(-1.29829,0,0,-1.29829,625.807,355.581)">
                        <path d="M35.92,5.76C32.62,5.76 29.86,7.91 29.86,11.47L29.86,19.12L32.69,19.12L32.69,11.82C32.678,11.708 32.671,11.595 32.671,11.482C32.671,9.781 34.071,8.382 35.771,8.382C35.848,8.382 35.924,8.384 36,8.39C38.1,8.39 39.14,9.68 39.14,11.82L39.14,19.12L42,19.12L42,11.47C42,7.91 39.22,5.76 35.92,5.76Z" style="fill:rgb(51,105,231);fill-rule:nonzero;"/>
                    </g>
                    <g transform="matrix(0.666667,0,0,0.666667,0.0453984,-15.0906)">
                        <path d="M880.471,527.089C880.471,527.089 880.496,542.341 880.496,542.344C880.496,549.978 875.741,555.626 867.27,555.626C863.368,555.807 859.57,554.302 856.851,551.497L860.317,547.739C862.189,549.544 864.709,550.527 867.309,550.465C871.081,550.838 874.339,548.156 874.907,544.409L874.957,527.089L880.471,527.089Z" style="fill:rgb(51,105,231);fill-rule:nonzero;"/>
                    </g>
                </g>
                <g transform="matrix(36.3289,0,0,36.3289,430.862,406.301)">
                    <path d="M0.346,-0.483L0.246,-0.137L0.142,-0.483L0.03,-0.483L0.19,-0L0.294,-0L0.395,-0.331L0.49,-0L0.594,-0L0.754,-0.483L0.643,-0.483L0.544,-0.137L0.444,-0.483L0.346,-0.483Z" style="fill:rgb(51,105,231);fill-rule:nonzero;"/>
                </g>
            </g>
        </g>
    </g>
</svg>
